<svg width="260" height="60" viewBox="0 0 260 60" fill="none" xmlns="http://www.w3.org/2000/svg">
  <rect x="2" y="6" width="48" height="48" rx="10" fill="#2563EB"/>

  <g transform="translate(14, 18)" stroke="white" stroke-width="2.5" stroke-linecap="round" stroke-linejoin="round">
    <path d="M4.8 2.3A.3.3 0 1 0 5 2H4a2 2 0 0 0-2 2v5a6 6 0 0 0 6 6v0a6 6 0 0 0 6-6V4a2 2 0 0 0-2-2h-1a.2.2 0 1 0 .3.3"/>
    
    <path d="M12 15V20"/>
    
    <circle cx="12" cy="20" r="2"/>
  </g>

  <text x="62" y="42" font-family="Arial, Helvetica, sans-serif" font-weight="bold" font-size="34" fill="#111827" letter-spacing="-0.5px">Health</text>

  <text x="168" y="42" font-family="Arial, Helvetica, sans-serif" font-weight="bold" font-size="34" fill="#2563EB" letter-spacing="-0.5px">Care</text>
</svg>